<svg xmlns="http://www.w3.org/2000/svg" width="500" height="500" viewBox="0 0 500 500">
<g>
<path d="M 259.09 448.72 C256.12,450.62 252.29,452.36 250.59,452.58 C247.45,453.00 241.42,450.49 235.48,446.30 C230.34,442.67 220.61,436.59 218.00,435.38 C216.62,434.74 210.78,431.47 205.02,428.11 C199.25,424.75 194.02,422.00 193.39,422.00 C192.76,422.00 191.70,421.34 191.04,420.54 C190.37,419.74 186.06,417.15 181.46,414.79 C170.15,409.00 168.21,407.91 163.11,404.46 C160.69,402.83 157.88,401.01 156.85,400.40 C155.82,399.80 153.46,397.92 151.59,396.22 C148.33,393.25 148.17,392.76 147.50,383.82 C146.50,370.41 147.46,325.22 148.84,321.00 C150.51,315.86 161.05,304.26 167.65,300.28 C175.91,295.30 188.59,289.05 194.98,286.80 C218.48,278.53 229.35,276.59 251.58,276.68 C266.42,276.74 270.10,277.09 279.58,279.37 C285.59,280.81 293.81,283.34 297.85,284.99 C301.90,286.65 305.72,288.00 306.35,288.01 C306.98,288.01 309.75,289.13 312.50,290.48 C315.25,291.83 317.89,292.95 318.38,292.97 C320.09,293.03 336.15,303.38 340.57,307.27 C343.10,309.50 346.40,313.89 348.15,317.36 C351.13,323.28 351.27,324.15 352.07,341.50 C352.52,351.40 352.51,367.09 352.03,376.36 L 351.17 393.22 L 347.89 396.61 C346.09,398.48 344.12,400.00 343.53,400.00 C342.94,400.00 340.86,401.31 338.92,402.91 C336.97,404.52 332.52,407.22 329.03,408.91 C325.53,410.60 321.96,412.59 321.09,413.32 C318.80,415.25 303.49,424.00 302.41,424.00 C301.91,424.00 299.25,425.61 296.50,427.57 C293.75,429.54 289.93,431.81 288.01,432.62 C286.10,433.43 283.62,434.93 282.51,435.96 C281.41,436.98 276.90,439.50 272.50,441.55 C268.10,443.59 262.07,446.82 259.09,448.72 ZM 407.12 216.25 C406.92,217.53 403.31,217.07 402.10,215.62 C401.47,214.86 399.72,213.99 398.20,213.69 C396.69,213.39 393.71,211.76 391.59,210.07 C389.46,208.38 387.26,207.00 386.69,207.00 C386.12,207.00 384.92,206.33 384.02,205.52 C382.51,204.15 379.34,202.26 369.84,197.06 C362.78,193.19 362.00,191.25 362.00,177.59 C362.00,168.08 361.65,164.95 360.40,163.16 C358.46,160.39 340.96,148.87 333.51,145.46 C330.54,144.10 327.83,142.54 327.49,141.99 C327.15,141.44 325.21,140.18 323.19,139.20 C321.16,138.21 315.08,134.73 309.69,131.45 C296.38,123.38 293.26,121.55 287.90,118.62 C285.37,117.24 280.42,114.16 276.90,111.76 C273.38,109.37 268.92,106.77 267.00,106.00 C265.08,105.23 261.74,103.34 259.60,101.80 C254.37,98.04 247.84,97.94 242.55,101.53 C240.50,102.92 233.82,106.53 227.71,109.55 C221.61,112.57 215.91,115.67 215.05,116.43 C214.20,117.19 210.70,119.22 207.28,120.95 C203.86,122.68 200.83,124.47 200.54,124.93 C199.63,126.40 174.98,140.97 164.50,146.23 C157.09,149.95 148.53,155.42 143.38,159.73 L 138.26 164.02 L 137.75 176.76 C137.47,183.77 136.92,190.28 136.53,191.22 C135.86,192.83 129.09,197.69 123.09,200.88 C120.86,202.06 116.79,204.53 108.49,209.75 C105.20,211.82 95.84,216.00 94.50,216.00 C93.81,216.00 92.80,215.44 92.25,214.75 C90.72,212.82 90.56,145.70 92.09,142.79 C93.58,139.95 102.05,132.00 103.59,132.00 C104.22,132.00 105.80,131.17 107.12,130.16 C108.43,129.15 110.94,127.83 112.69,127.23 C114.45,126.63 119.06,124.07 122.93,121.55 C126.81,119.02 130.77,116.65 131.74,116.28 C132.71,115.92 135.17,114.42 137.21,112.95 C139.25,111.48 142.40,109.66 144.21,108.92 C146.02,108.17 150.37,105.63 153.88,103.28 C157.39,100.92 160.82,99.00 161.49,99.00 C162.17,99.00 164.42,97.65 166.50,96.00 C168.58,94.35 170.82,93.00 171.49,93.00 C172.85,93.00 189.23,83.29 195.34,78.87 C197.52,77.29 199.66,76.00 200.10,76.00 C200.54,76.00 202.90,74.65 205.34,73.00 C207.79,71.35 210.23,70.00 210.76,70.00 C211.29,70.00 213.42,68.65 215.50,67.00 C217.58,65.35 219.82,64.00 220.49,64.00 C221.15,64.00 223.54,62.67 225.79,61.04 C228.03,59.41 231.36,57.39 233.19,56.54 C235.01,55.69 238.98,53.42 242.00,51.49 C248.75,47.18 251.52,47.35 259.68,52.58 C262.88,54.63 266.85,56.92 268.50,57.68 C270.15,58.44 272.85,59.94 274.50,61.02 C276.15,62.10 278.17,63.27 279.00,63.64 C279.83,64.00 281.40,65.07 282.50,66.02 C283.60,66.97 285.67,68.36 287.10,69.12 C292.60,72.05 300.44,76.63 304.87,79.52 C307.42,81.17 311.98,83.81 315.00,85.38 C318.03,86.94 321.93,89.30 323.68,90.61 C325.43,91.92 327.16,93.00 327.51,93.00 C327.87,93.00 333.22,96.04 339.41,99.75 C350.99,106.69 362.03,113.02 379.50,122.72 C385.00,125.78 390.40,129.07 391.50,130.04 C392.60,131.01 395.08,132.47 397.00,133.28 C398.92,134.10 402.06,136.40 403.97,138.40 C406.90,141.49 407.53,142.99 408.08,148.27 C408.80,155.13 408.01,210.61 407.12,216.25 ZM 263.07 250.42 C254.02,253.05 238.75,251.53 228.50,246.96 C221.49,243.84 211.50,235.47 207.12,229.06 C201.67,221.07 199.84,215.11 199.27,203.44 C198.69,191.76 199.16,189.81 205.81,176.13 C207.64,172.36 224.67,155.00 226.54,155.00 C227.20,155.00 230.56,154.10 234.00,153.00 C242.87,150.17 256.16,150.26 264.91,153.21 C273.75,156.20 280.58,160.49 286.05,166.50 C293.72,174.93 295.64,178.64 299.25,192.00 C301.03,198.61 301.14,200.36 300.15,206.74 C299.53,210.72 297.58,217.44 295.80,221.68 C290.26,234.87 277.26,246.28 263.07,250.42 ZM 128.25 375.50 C127.63,380.47 127.16,381.54 125.50,381.71 C123.61,381.90 112.23,376.30 109.00,373.57 C108.18,372.88 105.02,370.92 101.98,369.21 C91.52,363.35 91.55,363.42 91.15,343.51 C90.72,321.78 91.80,317.10 98.80,310.34 C104.24,305.08 113.29,299.00 115.68,299.00 C116.59,299.00 119.61,298.36 122.41,297.58 C131.50,295.04 138.10,293.77 138.77,294.44 C139.13,294.80 138.91,295.86 138.27,296.80 C133.02,304.48 129.71,311.20 128.83,315.94 C128.18,319.42 128.01,330.47 128.39,345.50 C128.73,358.70 128.66,372.20 128.25,375.50 ZM 380.01 378.73 C375.89,380.53 372.43,382.00 372.32,382.00 C371.40,382.00 371.20,376.36 371.06,347.19 C370.94,321.30 371.06,314.39 368.44,308.73 C367.31,306.28 365.66,304.06 363.25,300.63 C361.04,297.48 360.18,295.42 360.81,294.79 C361.44,294.16 365.08,294.58 371.14,295.98 C394.94,301.48 404.95,309.47 407.84,325.26 C408.27,327.59 408.57,336.41 408.51,344.86 L 408.42 360.21 L 403.86 364.36 C398.39,369.34 390.14,374.31 380.01,378.73 ZM 155.50 273.50 C147.72,275.70 145.78,275.90 141.72,274.93 C133.21,272.88 126.94,268.32 122.98,261.31 C120.38,256.70 120.00,255.04 120.00,248.21 C120.00,241.33 120.34,239.85 122.85,235.90 C127.98,227.81 138.71,221.00 146.34,221.00 C151.22,221.00 160.54,224.69 165.87,228.73 C169.71,231.64 173.54,239.34 174.51,246.07 C176.01,256.44 166.30,270.44 155.50,273.50 ZM 362.67 273.25 C357.19,275.72 347.64,275.51 342.50,272.81 C330.93,266.73 325.03,258.25 325.01,247.69 C325.00,240.50 328.59,232.32 333.34,228.69 C338.46,224.79 348.39,221.00 353.51,221.00 C360.93,221.00 369.72,226.44 375.55,234.64 C378.72,239.09 379.00,240.09 379.00,246.71 C379.00,255.28 376.26,263.38 372.21,266.77 C370.72,268.03 368.84,269.60 368.03,270.27 C367.22,270.95 364.81,272.29 362.67,273.25 Z" fill="rgb(6,179,91)"/>
<path d="M 0.00 0.00 L 500.00 0.00 L 500.00 500.00 L 0.00 500.00 ZM 241.50 452.84 C247.74,456.07 252.12,455.62 260.88,450.84 C265.07,448.55 270.98,445.34 274.00,443.69 C277.02,442.05 286.25,436.80 294.50,432.02 C302.75,427.25 313.77,420.95 319.00,418.02 C333.22,410.04 340.27,405.80 342.50,403.90 C343.60,402.96 346.39,401.21 348.71,400.01 C351.02,398.82 353.24,396.87 353.63,395.67 C354.03,394.48 354.35,377.75 354.33,358.50 L 354.31 323.50 L 351.49 317.74 C346.48,307.52 336.37,299.30 318.62,291.03 C305.47,284.90 293.36,280.79 278.50,277.42 C268.15,275.08 264.23,274.70 250.00,274.66 C235.62,274.61 231.91,274.96 221.11,277.33 C214.30,278.83 208.30,280.32 207.77,280.64 C207.25,280.96 204.72,281.81 202.16,282.53 C194.90,284.56 180.32,291.00 170.52,296.50 C159.83,302.50 152.27,309.72 148.37,317.65 L 145.50 323.50 L 145.18 358.69 C144.97,381.86 145.22,394.54 145.91,395.83 C146.48,396.90 149.10,399.01 151.73,400.51 C154.35,402.02 158.75,404.70 161.50,406.48 C166.86,409.94 186.56,421.32 191.50,423.81 C197.92,427.04 224.83,442.53 231.00,446.54 C234.57,448.87 239.30,451.70 241.50,452.84 ZM 400.49 218.35 C400.78,218.50 401.06,218.65 401.33,218.79 C404.19,220.33 406.15,221.38 407.50,220.85 C410.40,219.71 410.41,211.20 410.44,184.28 C410.45,183.10 410.45,181.90 410.45,180.66 C410.45,179.42 410.45,178.22 410.45,177.06 C410.50,148.58 410.51,141.80 407.19,137.79 C406.01,136.37 404.43,135.30 402.28,133.74 C397.92,130.56 383.30,121.92 364.00,111.11 C359.88,108.79 352.23,104.40 347.00,101.33 C341.77,98.27 330.08,91.49 321.00,86.26 C302.93,75.86 290.79,68.58 276.70,59.70 C266.01,52.97 252.37,46.00 249.88,46.00 C247.05,46.00 231.87,54.29 214.85,65.14 C208.93,68.91 203.87,72.00 203.61,72.00 C203.36,72.00 195.80,76.33 186.82,81.62 C177.84,86.91 167.35,93.05 163.50,95.27 C159.65,97.49 154.93,100.30 153.00,101.51 C151.07,102.73 143.88,107.00 137.00,111.01 C130.12,115.02 122.47,119.51 120.00,121.00 C117.53,122.49 112.80,125.16 109.50,126.95 C106.20,128.74 100.91,131.85 97.75,133.85 C95.40,135.34 93.65,136.44 92.36,137.93 C88.64,142.25 88.77,149.89 89.29,180.12 L 89.30 180.78 C89.63,199.88 90.21,216.56 90.59,217.86 C91.20,219.90 91.75,220.14 94.71,219.66 C96.59,219.35 103.61,215.78 110.31,211.71 C117.02,207.64 125.47,202.67 129.09,200.66 C139.33,194.98 139.26,195.11 140.46,178.19 L 141.50 163.50 L 147.00 159.86 C150.02,157.86 159.02,152.64 167.00,148.25 C174.98,143.87 189.15,135.66 198.50,130.01 C236.10,107.29 247.45,100.99 250.72,101.01 C251.70,101.02 254.52,102.20 257.00,103.65 C259.48,105.09 263.75,107.49 266.50,108.97 C269.25,110.46 281.85,117.89 294.50,125.48 C307.15,133.08 319.52,140.41 322.00,141.78 C324.48,143.15 326.95,144.59 327.50,144.99 C328.05,145.38 332.51,147.85 337.42,150.48 C349.92,157.17 357.72,162.93 358.96,166.40 C359.53,167.99 360.00,174.37 360.00,180.57 C360.00,191.19 360.15,192.02 362.54,194.87 C363.94,196.53 365.98,198.18 367.06,198.52 C369.26,199.22 379.08,205.02 389.00,211.47 C392.58,213.80 397.75,216.89 400.49,218.35 ZM 238.00 253.29 C242.95,254.16 259.59,253.93 263.89,252.94 C272.29,251.00 279.26,246.81 287.00,239.03 C302.45,223.52 307.33,205.47 301.09,186.92 C293.44,164.17 277.26,151.11 254.55,149.36 C237.75,148.07 223.41,152.98 212.71,163.68 C204.90,171.49 197.78,186.89 196.44,198.91 C194.30,218.00 207.46,239.41 227.15,248.85 C231.74,251.05 236.62,253.05 238.00,253.29 ZM 370.04 386.08 C371.05,387.97 371.23,387.94 375.29,385.16 C377.61,383.58 383.10,380.36 387.50,378.01 C400.62,370.99 408.96,365.22 410.02,362.44 C411.51,358.52 411.22,327.43 409.64,321.50 C406.70,310.47 402.81,305.94 391.44,300.25 C383.95,296.50 377.80,294.55 366.80,292.43 C353.39,289.84 352.07,291.34 359.91,300.30 C368.73,310.38 369.00,311.87 369.00,350.60 C369.00,372.00 369.38,384.84 370.04,386.08 ZM 123.94 385.22 C127.59,388.01 130.29,387.18 131.14,383.00 C131.54,381.08 131.52,366.94 131.11,351.59 C130.69,336.24 130.74,321.23 131.21,318.24 C132.24,311.64 134.85,306.33 140.74,298.81 C146.02,292.07 145.68,290.54 139.13,291.47 C113.22,295.14 95.01,305.45 90.72,318.86 C88.75,325.01 88.38,344.75 90.01,356.50 C90.89,362.82 91.36,363.84 94.86,367.00 C97.00,368.92 103.87,373.39 110.12,376.92 C116.38,380.45 122.60,384.19 123.94,385.22 ZM 134.50 275.12 C150.50,282.79 169.63,274.42 176.01,256.96 C178.42,250.38 178.49,247.04 176.40,239.93 C174.09,232.11 168.99,226.36 161.07,222.65 C147.65,216.36 133.85,218.73 124.85,228.87 C119.18,235.26 117.71,239.16 117.65,248.00 C117.56,260.80 123.04,269.62 134.50,275.12 ZM 344.80 277.01 C348.97,278.27 358.59,278.14 361.70,276.78 C376.07,270.50 382.16,261.63 382.12,247.08 C382.09,237.44 379.29,232.25 370.34,225.24 C362.08,218.76 351.70,217.27 341.46,221.10 C331.65,224.77 325.20,232.33 322.96,242.77 C321.51,249.51 322.72,255.30 327.09,262.51 C330.50,268.13 339.33,275.36 344.80,277.01 Z" fill="rgb(23,32,55)"/>
<path d="M 123.94 385.22 C122.75,384.30 117.74,381.27 112.26,378.14 C113.29,378.71 114.37,379.31 115.50,379.94 C121.55,383.29 127.18,385.91 128.00,385.76 C129.28,385.52 129.58,380.59 130.09,351.49 C130.27,341.04 130.56,331.50 130.88,324.69 C130.76,331.16 130.83,341.30 131.11,351.59 C131.52,366.94 131.54,381.08 131.14,383.00 C130.29,387.18 127.59,388.01 123.94,385.22 ZM 131.30 317.64 C131.44,315.94 131.58,314.83 131.71,314.44 C133.10,310.36 135.04,306.66 138.11,302.33 C134.19,307.88 132.22,312.38 131.30,317.64 ZM 92.89 365.07 C91.12,363.09 90.69,361.37 90.01,356.50 C89.18,350.51 88.87,342.45 89.02,335.17 C88.87,342.49 89.19,350.57 90.05,356.46 C90.59,360.23 91.11,362.71 92.89,365.07 Z" fill="rgb(24,76,69)"/>
<path d="M 241.50 452.84 C239.30,451.70 234.57,448.87 231.00,446.54 C224.83,442.53 197.92,427.04 191.50,423.81 C186.56,421.32 166.86,409.94 161.50,406.48 C158.75,404.70 154.35,402.02 151.73,400.51 C149.10,399.01 146.48,396.90 145.91,395.83 C145.22,394.54 144.97,381.86 145.18,358.69 L 145.50 323.50 L 148.37 317.65 C152.27,309.72 159.83,302.50 170.52,296.50 C180.32,291.00 194.90,284.56 202.16,282.53 C204.72,281.81 207.25,280.96 207.77,280.64 C208.30,280.32 214.30,278.83 221.11,277.33 C231.91,274.96 235.62,274.61 250.00,274.66 C264.23,274.70 268.15,275.08 278.50,277.42 C293.36,280.79 305.47,284.90 318.62,291.03 C336.37,299.30 346.48,307.52 351.49,317.74 L 354.31 323.50 L 354.33 358.50 C354.35,377.75 354.03,394.48 353.63,395.67 C353.24,396.87 351.02,398.82 348.71,400.01 C346.39,401.21 343.60,402.96 342.50,403.90 C340.27,405.80 333.22,410.04 319.00,418.02 C313.77,420.95 302.75,427.25 294.50,432.02 C286.25,436.80 277.02,442.05 274.00,443.69 C270.98,445.34 265.07,448.55 260.88,450.84 C252.12,455.62 247.74,456.07 241.50,452.84 ZM 259.09 448.72 C262.07,446.82 268.10,443.59 272.50,441.55 C276.90,439.50 281.41,436.98 282.51,435.96 C283.62,434.93 286.10,433.43 288.01,432.62 C289.93,431.81 293.75,429.54 296.50,427.57 C299.25,425.61 301.91,424.00 302.41,424.00 C303.49,424.00 318.80,415.25 321.09,413.32 C321.96,412.59 325.53,410.60 329.03,408.91 C332.52,407.22 336.97,404.52 338.92,402.91 C340.86,401.31 342.94,400.00 343.53,400.00 C344.12,400.00 346.09,398.48 347.89,396.61 L 351.17 393.22 L 352.03 376.36 C352.51,367.09 352.52,351.40 352.07,341.50 C351.27,324.15 351.13,323.28 348.15,317.36 C346.40,313.89 343.10,309.50 340.57,307.27 C336.15,303.38 320.09,293.03 318.38,292.97 C317.89,292.95 315.25,291.83 312.50,290.48 C309.75,289.13 306.98,288.01 306.35,288.01 C305.72,288.00 301.90,286.65 297.85,284.99 C293.81,283.34 285.59,280.81 279.58,279.37 C270.10,277.09 266.42,276.74 251.58,276.68 C229.35,276.59 218.48,278.53 194.98,286.80 C188.59,289.05 175.91,295.30 167.65,300.28 C161.05,304.26 150.51,315.86 148.84,321.00 C147.46,325.22 146.50,370.41 147.50,383.82 C148.17,392.76 148.33,393.25 151.59,396.22 C153.46,397.92 155.82,399.80 156.85,400.40 C157.88,401.01 160.69,402.83 163.11,404.46 C168.21,407.91 170.15,409.00 181.46,414.79 C186.06,417.15 190.37,419.74 191.04,420.54 C191.70,421.34 192.76,422.00 193.39,422.00 C194.02,422.00 199.25,424.75 205.02,428.11 C210.78,431.47 216.62,434.74 218.00,435.38 C220.61,436.59 230.34,442.67 235.48,446.30 C241.42,450.49 247.45,453.00 250.59,452.58 C252.29,452.36 256.12,450.62 259.09,448.72 ZM 370.04 386.08 C369.38,384.84 369.00,372.00 369.00,350.60 C369.00,311.87 368.73,310.38 359.91,300.30 C352.07,291.34 353.39,289.84 366.80,292.43 C377.80,294.55 383.95,296.50 391.44,300.25 C402.81,305.94 406.70,310.47 409.64,321.50 C411.22,327.43 411.51,358.52 410.02,362.44 C408.96,365.22 400.62,370.99 387.50,378.01 C383.10,380.36 377.61,383.58 375.29,385.16 C371.23,387.94 371.05,387.97 370.04,386.08 ZM 380.01 378.73 C390.14,374.31 398.39,369.34 403.86,364.36 L 408.42 360.21 L 408.51 344.86 C408.57,336.41 408.27,327.59 407.84,325.26 C404.95,309.47 394.94,301.48 371.14,295.98 C365.08,294.58 361.44,294.16 360.81,294.79 C360.18,295.42 361.04,297.48 363.25,300.63 C371.20,311.96 370.89,310.07 371.06,347.19 C371.20,376.36 371.40,382.00 372.32,382.00 C372.43,382.00 375.89,380.53 380.01,378.73 ZM 115.50 379.94 C92.67,367.28 91.45,366.15 90.05,356.46 C88.38,344.94 88.73,325.06 90.72,318.86 C95.01,305.45 113.22,295.14 139.13,291.47 C145.68,290.54 146.02,292.07 140.74,298.81 C136.08,304.77 133.46,309.31 131.71,314.44 C131.12,316.17 130.42,332.31 130.09,351.49 C129.58,380.59 129.28,385.52 128.00,385.76 C127.18,385.91 121.55,383.29 115.50,379.94 ZM 128.25 375.50 C128.66,372.20 128.73,358.70 128.39,345.50 C128.01,330.47 128.18,319.42 128.83,315.94 C129.71,311.20 133.02,304.48 138.27,296.80 C138.91,295.86 139.13,294.80 138.77,294.44 C138.10,293.77 131.50,295.04 122.41,297.58 C119.61,298.36 116.59,299.00 115.68,299.00 C113.29,299.00 104.24,305.08 98.80,310.34 C91.80,317.10 90.72,321.78 91.15,343.51 C91.55,363.42 91.52,363.35 101.98,369.21 C105.02,370.92 108.18,372.88 109.00,373.57 C112.23,376.30 123.61,381.90 125.50,381.71 C127.16,381.54 127.63,380.47 128.25,375.50 ZM 134.50 275.12 C123.04,269.62 117.56,260.80 117.65,248.00 C117.71,239.16 119.18,235.26 124.85,228.87 C133.85,218.73 147.65,216.36 161.07,222.65 C168.99,226.36 174.09,232.11 176.40,239.93 C178.49,247.04 178.42,250.38 176.01,256.96 C169.63,274.42 150.50,282.79 134.50,275.12 ZM 155.50 273.50 C166.30,270.44 176.01,256.44 174.51,246.07 C173.54,239.34 169.71,231.64 165.87,228.73 C160.54,224.69 151.22,221.00 146.34,221.00 C138.71,221.00 127.98,227.81 122.85,235.90 C120.34,239.85 120.00,241.33 120.00,248.21 C120.00,255.04 120.38,256.70 122.98,261.31 C126.94,268.32 133.21,272.88 141.72,274.93 C145.78,275.90 147.72,275.70 155.50,273.50 ZM 344.80 277.01 C339.33,275.36 330.50,268.13 327.09,262.51 C322.72,255.30 321.51,249.51 322.96,242.77 C325.20,232.33 331.65,224.77 341.46,221.10 C351.70,217.27 362.08,218.76 370.34,225.24 C379.29,232.25 382.09,237.44 382.12,247.08 C382.16,261.63 376.07,270.50 361.70,276.78 C358.59,278.14 348.97,278.27 344.80,277.01 ZM 362.67 273.25 C364.81,272.29 367.22,270.95 368.03,270.27 C368.84,269.60 370.72,268.03 372.21,266.77 C376.26,263.38 379.00,255.28 379.00,246.71 C379.00,240.09 378.72,239.09 375.55,234.64 C369.72,226.44 360.93,221.00 353.51,221.00 C348.39,221.00 338.46,224.79 333.34,228.69 C328.59,232.32 325.00,240.50 325.01,247.69 C325.03,258.25 330.93,266.73 342.50,272.81 C347.64,275.51 357.19,275.72 362.67,273.25 ZM 238.00 253.29 C236.62,253.05 231.74,251.05 227.15,248.85 C207.46,239.41 194.30,218.00 196.44,198.91 C197.78,186.89 204.90,171.49 212.71,163.68 C223.41,152.98 237.75,148.07 254.55,149.36 C277.26,151.11 293.44,164.17 301.09,186.92 C307.33,205.47 302.45,223.52 287.00,239.03 C279.26,246.81 272.29,251.00 263.89,252.94 C259.59,253.93 242.95,254.16 238.00,253.29 ZM 263.07 250.42 C277.26,246.28 290.26,234.87 295.80,221.68 C297.58,217.44 299.53,210.72 300.15,206.74 C301.14,200.36 301.03,198.61 299.25,192.00 C295.64,178.64 293.72,174.93 286.05,166.50 C280.58,160.49 273.75,156.20 264.91,153.21 C256.16,150.26 242.87,150.17 234.00,153.00 C230.56,154.10 227.20,155.00 226.54,155.00 C224.67,155.00 207.64,172.36 205.81,176.13 C199.16,189.81 198.69,191.76 199.27,203.44 C199.84,215.11 201.67,221.07 207.12,229.06 C211.50,235.47 221.49,243.84 228.50,246.96 C238.75,251.53 254.02,253.05 263.07,250.42 ZM 400.49 218.35 C397.75,216.89 392.58,213.80 389.00,211.47 C379.08,205.02 369.26,199.22 367.06,198.52 C365.98,198.18 363.94,196.53 362.54,194.87 C360.15,192.02 360.00,191.19 360.00,180.57 C360.00,174.37 359.53,167.99 358.96,166.40 C357.72,162.93 349.92,157.17 337.42,150.48 C332.51,147.85 328.05,145.38 327.50,144.99 C326.95,144.59 324.48,143.15 322.00,141.78 C319.52,140.41 307.15,133.08 294.50,125.48 C281.85,117.89 269.25,110.46 266.50,108.97 C263.75,107.49 259.48,105.09 257.00,103.65 C254.52,102.20 251.70,101.02 250.72,101.01 C247.45,100.99 236.10,107.29 198.50,130.01 C189.15,135.66 174.98,143.87 167.00,148.25 C159.02,152.64 150.02,157.86 147.00,159.86 L 141.50 163.50 L 140.46 178.19 C139.26,195.11 139.33,194.98 129.09,200.66 C125.47,202.67 117.02,207.64 110.31,211.71 C103.61,215.78 96.59,219.35 94.71,219.66 C91.75,220.14 91.20,219.90 90.59,217.86 C90.21,216.56 89.63,199.88 89.30,180.78 C88.59,139.44 88.55,139.69 97.75,133.85 C100.91,131.85 106.20,128.74 109.50,126.95 C112.80,125.16 117.53,122.49 120.00,121.00 C122.47,119.51 130.12,115.02 137.00,111.01 C143.88,107.00 151.07,102.73 153.00,101.51 C154.93,100.30 159.65,97.49 163.50,95.27 C167.35,93.05 177.84,86.91 186.82,81.62 C195.80,76.33 203.36,72.00 203.61,72.00 C203.87,72.00 208.93,68.91 214.85,65.14 C231.87,54.29 247.05,46.00 249.88,46.00 C252.37,46.00 266.01,52.97 276.70,59.70 C290.79,68.58 302.93,75.86 321.00,86.26 C330.08,91.49 341.77,98.27 347.00,101.33 C352.23,104.40 359.88,108.79 364.00,111.11 C383.30,121.92 397.92,130.56 402.28,133.74 C410.76,139.91 410.51,138.45 410.45,180.66 C410.39,224.88 410.68,223.76 400.49,218.35 ZM 407.12 216.25 C408.01,210.61 408.80,155.13 408.08,148.27 C407.53,142.99 406.90,141.49 403.97,138.40 C402.06,136.40 398.92,134.10 397.00,133.28 C395.08,132.47 392.60,131.01 391.50,130.04 C390.40,129.07 385.00,125.78 379.50,122.72 C362.03,113.02 350.99,106.69 339.41,99.75 C333.22,96.04 327.87,93.00 327.51,93.00 C327.16,93.00 325.43,91.92 323.68,90.61 C321.93,89.30 318.03,86.94 315.00,85.38 C311.98,83.81 307.42,81.17 304.87,79.52 C300.44,76.63 292.60,72.05 287.10,69.12 C285.67,68.36 283.60,66.97 282.50,66.02 C281.40,65.07 279.83,64.00 279.00,63.64 C278.17,63.27 276.15,62.10 274.50,61.02 C272.85,59.94 270.15,58.44 268.50,57.68 C266.85,56.92 262.88,54.63 259.68,52.58 C251.52,47.35 248.75,47.18 242.00,51.49 C238.98,53.42 235.01,55.69 233.19,56.54 C231.36,57.39 228.03,59.41 225.79,61.04 C223.54,62.67 221.15,64.00 220.49,64.00 C219.82,64.00 217.58,65.35 215.50,67.00 C213.42,68.65 211.29,70.00 210.76,70.00 C210.23,70.00 207.79,71.35 205.34,73.00 C202.90,74.65 200.54,76.00 200.10,76.00 C199.66,76.00 197.52,77.29 195.34,78.87 C189.23,83.29 172.85,93.00 171.49,93.00 C170.82,93.00 168.58,94.35 166.50,96.00 C164.42,97.65 162.17,99.00 161.49,99.00 C160.82,99.00 157.39,100.92 153.88,103.28 C150.37,105.63 146.02,108.17 144.21,108.92 C142.40,109.66 139.25,111.48 137.21,112.95 C135.17,114.42 132.71,115.92 131.74,116.28 C130.77,116.65 126.81,119.02 122.93,121.55 C119.06,124.07 114.45,126.63 112.69,127.23 C110.94,127.83 108.43,129.15 107.12,130.16 C105.80,131.17 104.22,132.00 103.59,132.00 C102.05,132.00 93.58,139.95 92.09,142.79 C90.56,145.70 90.72,212.82 92.25,214.75 C92.80,215.44 93.81,216.00 94.50,216.00 C95.84,216.00 105.20,211.82 108.49,209.75 C116.79,204.53 120.86,202.06 123.09,200.88 C129.09,197.69 135.86,192.83 136.53,191.22 C136.92,190.28 137.47,183.77 137.75,176.76 L 138.26 164.02 L 143.38 159.73 C148.53,155.42 157.09,149.95 164.50,146.23 C174.98,140.97 199.63,126.40 200.54,124.93 C200.83,124.47 203.86,122.68 207.28,120.95 C210.70,119.22 214.20,117.19 215.05,116.43 C215.91,115.67 221.61,112.57 227.71,109.55 C233.82,106.53 240.50,102.92 242.55,101.53 C247.84,97.94 254.37,98.04 259.60,101.80 C261.74,103.34 265.08,105.23 267.00,106.00 C268.92,106.77 273.38,109.37 276.90,111.76 C280.42,114.16 285.37,117.24 287.90,118.62 C293.26,121.55 296.38,123.38 309.69,131.45 C315.08,134.73 321.16,138.21 323.19,139.20 C325.21,140.18 327.15,141.44 327.49,141.99 C327.83,142.54 330.54,144.10 333.51,145.46 C340.96,148.87 358.46,160.39 360.40,163.16 C361.65,164.95 362.00,168.08 362.00,177.59 C362.00,191.25 362.78,193.19 369.84,197.06 C379.34,202.26 382.51,204.15 384.02,205.52 C384.92,206.33 386.12,207.00 386.69,207.00 C387.26,207.00 389.46,208.38 391.59,210.07 C393.71,211.76 396.69,213.39 398.20,213.69 C399.72,213.99 401.47,214.86 402.10,215.62 C403.31,217.07 406.92,217.53 407.12,216.25 Z" fill="rgb(28,139,94)"/>
</g>
</svg>